<?xml version="1.0" encoding="UTF-8"?>
<svg version="1.1" viewBox="0 0 1964 1268" width="491" height="317" xmlns="http://www.w3.org/2000/svg">
<path transform="translate(1699,763)" d="m0 0h4l1 6-2 29-6 68-9 108-13 154-9 107-2 7-5-2-10-9-13-12-12-11-10-9-26-24-16-15-8-7-15-14-24-22-8-7-7-7-8-7-15-14-12-11-10-9-15-14-10-9-12-11-10-9-15-14-8-7-15-14-8-7-17-16-15-14-3-3v-4l8-1 116 4 73 3h18l5-5 10-12 11-14 8-10 11-14 9-11 11-14 2-3h2l2-4 10-13 12-15 11-14 13-16 11-14 9-11 9-12z" fill="#BDD9F9"/>
<path transform="translate(1351,948)" d="m0 0h24l114 4 51 2 11 1 3 5 7 20 26 70 36 96 13 35 15 39-1 3-16-15-13-12-8-7-16-15-10-9-16-15-24-22-10-9-17-16-12-11-10-9-12-11-13-12-15-14-8-7-13-12-10-9-31-29-8-7-15-14-8-7-14-12z" fill="#BDD9F9"/>
<path transform="translate(1699,763)" d="m0 0h4l1 6-2 29-6 68-9 108-13 154-9 107-2 7-5-2-10-9-13-12-12-11-10-9-26-24-16-15-8-7-15-14-24-22-8-7-7-7-8-7-15-14-12-11-10-9-15-14-10-9-12-11-10-9-15-14-8-7-15-14-8-7-17-16-15-14-3-3v-4l8-1 116 4 73 3h18l5-5 10-12 11-14 8-10 11-14 9-11 11-14 2-3h2l2-4 10-13 12-15 11-14 13-16 11-14 9-11 9-12zm-5 18-12 14-33 42-13 16-11 14-13 16-11 14-14 18-13 16-9 11-6 8 1 9 19 51 33 88 16 43 18 49 10 27h2l1-2 11-129 15-179 7-80 3-37v-9zm-343 167 4 5 10 8 17 16 8 7 14 13 8 7 8 8 8 7 17 16 8 7 13 12 10 9 16 15 12 11 10 9 12 11 13 12 16 15 8 7 15 14 12 11 15 14 10 9 14 13 8 7 13 12 1-3-15-39-7-19-16-43-15-40-25-67-21-56-1-1-11-1-132-5-33-1z" fill="#17203F"/>
<path transform="translate(1337,665)" d="m0 0 5 1 14 8 16 11 19 14 4 4v5l-5 1-20-15-23-15-11-7-1-5z" fill="#192342"/>
<path transform="translate(717,604)" d="m0 0 7 1 25 12 25 10 8 4 1 4-1 2-9-1-30-12-15-7-10-6-2-2z" fill="#182140"/>
<path transform="translate(1219,618)" d="m0 0 11 2 25 7 28 10 2 4-1 4-6-1-30-10-29-8-3-5z" fill="#182241"/>
<path transform="translate(616,527)" d="m0 0 6 1 18 18 8 7 22 18v5l-5 1-11-8-14-12-16-15-8-9-1-5z" fill="#17203F"/>
<path transform="translate(441,333)" d="m0 0 7 4 18 13 25 14 8 5 1 6h-6l-16-8-18-11-14-10-8-7 1-5z" fill="#182140"/>
<path transform="translate(1436,744)" d="m0 0 4 1 13 13 8 10 9 12 10 14 2 4-1 4-5-1-5-5-10-14-13-16-12-14-2-5z" fill="#182140"/>
<path transform="translate(722,318)" d="m0 0 5 1v5l-9 13-11 13-6 6h-2v2l-16 12-6 1-2-1 1-5 10-8 11-9 9-9 10-13z" fill="#182140"/>
<path transform="translate(717,197)" d="m0 0h5l8 14 6 15 4 14 2 14v9l-4 2-4-4-2-16-6-22-10-21z" fill="#192241"/>
<path transform="translate(543,423)" d="m0 0 5 1 8 13 16 27 10 15 1 5-1 1h-5l-8-10-13-21-10-18-4-8z" fill="#192241"/>
<path transform="translate(550,185)" d="m0 0 5 1-1 5-10 12-8 14-12 25-2 5-3 1-3-2v-6l6-15 10-19 8-11 7-8z" fill="#182241"/>
<path transform="translate(1117,609)" d="m0 0h42l2 3v4l-17 1-38 1h-15l-1-5 2-2 6-1z" fill="#182140"/>
<path transform="translate(355,239)" d="m0 0 5 1 16 23 9 12 9 11 6 9v2l-6 1-8-8-11-14-13-18-8-14z" fill="#182140"/>
<path transform="translate(626,153)" d="m0 0h14l18 2 15 4 1 5-1 2-9-1-17-3h-28l-7 1h-8l-1-5 7-3z" fill="#17203F"/>
<path transform="translate(505,303)" d="m0 0h6l1 1 3 30 4 21 3 9-1 5-5 1-2-2-5-17-3-16-2-24v-7z" fill="#182241"/>
<path transform="translate(307,122)" d="m0 0h5l3 7 9 32 8 23v6l-5-1-4-5-7-20-8-28-2-9z" fill="#192342"/>
<path transform="translate(618,387)" d="m0 0h5l1 5-4 3-13 2-22 1-28-2-3-1-1-7h10l13 1h27z" fill="#192241"/>
<path transform="translate(901,642)" d="m0 0h6l1 1v5l-5 2-10 1h-53l-3-3 1-5h41z" fill="#182140"/>
<path transform="translate(1026,621)" d="m0 0h8l1 4-4 3-23 5-39 7-5-1 1-5 4-2z" fill="#182140"/>
<path transform="translate(1507,850)" d="m0 0 5 1 10 24 2 6v6h-5l-3-4-11-29z" fill="#182241"/>
<path transform="translate(299,27)" d="m0 0h5l1 1v37l-7-1v-36z" fill="#161F3E"/>
</svg>
